<svg width="75" height="75" viewBox="0 0 75 75" fill="none" xmlns="http://www.w3.org/2000/svg">
<path fill-rule="evenodd" clip-rule="evenodd" d="M37.531 0C16.7773 0 0 16.901 0 37.8099C0 54.5235 10.7498 68.6712 25.6627 73.6785C27.5272 74.0549 28.2101 72.8649 28.2101 71.8639C28.2101 70.9874 28.1487 67.9828 28.1487 64.8523C17.7084 67.1063 15.5343 60.3451 15.5343 60.3451C13.8565 55.9631 11.3705 54.8369 11.3705 54.8369C7.95347 52.5207 11.6195 52.5207 11.6195 52.5207C15.4099 52.7711 17.3988 56.4018 17.3988 56.4018C20.7537 62.1604 26.1597 60.5333 28.3346 59.5315C28.6449 57.0901 29.6398 55.4 30.6961 54.4612C22.3693 53.5847 13.6084 50.3297 13.6084 35.8064C13.6084 31.6748 15.0988 28.2946 17.4603 25.6657C17.0877 24.727 15.7825 20.8451 17.8337 15.6496C17.8337 15.6496 21.0026 14.6478 28.1479 19.5307C31.207 18.703 34.3619 18.282 37.531 18.2785C40.7 18.2785 43.9304 18.7171 46.9134 19.5307C54.0595 14.6478 57.2284 15.6496 57.2284 15.6496C59.2796 20.8451 57.9736 24.727 57.601 25.6657C60.0247 28.2946 61.4537 31.6748 61.4537 35.8064C61.4537 50.3297 52.6928 53.5217 44.3037 54.4612C45.6712 55.6505 46.8512 57.9037 46.8512 61.4721C46.8512 66.5424 46.7897 70.6117 46.7897 71.8632C46.7897 72.8649 47.4734 74.0549 49.3372 73.6792C64.25 68.6704 74.9998 54.5235 74.9998 37.8099C75.0613 16.901 58.2225 0 37.531 0Z" fill="white"/>
</svg>
