<svg width="75" height="75" viewBox="0 0 75 75" fill="none" xmlns="http://www.w3.org/2000/svg">
<g clip-path="url(#clip0_104_175)">
<path d="M37.5 6.75293C47.5195 6.75293 48.7061 6.79687 52.6465 6.97266C56.3086 7.13379 58.2861 7.74902 59.6045 8.26172C61.3477 8.93555 62.6074 9.75586 63.9111 11.0596C65.2295 12.3779 66.0352 13.623 66.709 15.3662C67.2217 16.6846 67.8369 18.6768 67.9981 22.3242C68.1738 26.2793 68.2178 27.4658 68.2178 37.4707C68.2178 47.4902 68.1738 48.6768 67.9981 52.6172C67.8369 56.2793 67.2217 58.2568 66.709 59.5752C66.0352 61.3184 65.2149 62.5781 63.9111 63.8818C62.5928 65.2002 61.3477 66.0059 59.6045 66.6797C58.2861 67.1924 56.294 67.8076 52.6465 67.9688C48.6914 68.1445 47.5049 68.1885 37.5 68.1885C27.4805 68.1885 26.2939 68.1445 22.3535 67.9688C18.6914 67.8076 16.7139 67.1924 15.3955 66.6797C13.6523 66.0059 12.3926 65.1855 11.0889 63.8818C9.77051 62.5635 8.96484 61.3184 8.29102 59.5752C7.77832 58.2568 7.16309 56.2647 7.00195 52.6172C6.82617 48.6621 6.78223 47.4756 6.78223 37.4707C6.78223 27.4512 6.82617 26.2646 7.00195 22.3242C7.16309 18.6621 7.77832 16.6846 8.29102 15.3662C8.96484 13.623 9.78516 12.3633 11.0889 11.0596C12.4072 9.74121 13.6523 8.93555 15.3955 8.26172C16.7139 7.74902 18.7061 7.13379 22.3535 6.97266C26.2939 6.79687 27.4805 6.75293 37.5 6.75293ZM37.5 0C27.3193 0 26.0449 0.0439453 22.0459 0.219727C18.0615 0.395508 15.3223 1.04004 12.9492 1.96289C10.4736 2.92969 8.37891 4.2041 6.29883 6.29883C4.2041 8.37891 2.92969 10.4736 1.96289 12.9346C1.04004 15.3223 0.395508 18.0469 0.219727 22.0312C0.0439453 26.0449 0 27.3193 0 37.5C0 47.6807 0.0439453 48.9551 0.219727 52.9541C0.395508 56.9385 1.04004 59.6777 1.96289 62.0508C2.92969 64.5264 4.2041 66.6211 6.29883 68.7012C8.37891 70.7812 10.4736 72.0703 12.9346 73.0225C15.3223 73.9453 18.0469 74.5898 22.0313 74.7656C26.0303 74.9414 27.3047 74.9854 37.4854 74.9854C47.666 74.9854 48.9404 74.9414 52.9395 74.7656C56.9238 74.5898 59.6631 73.9453 62.0361 73.0225C64.4971 72.0703 66.5918 70.7812 68.6719 68.7012C70.752 66.6211 72.041 64.5264 72.9932 62.0654C73.916 59.6777 74.5606 56.9531 74.7363 52.9688C74.9121 48.9697 74.9561 47.6953 74.9561 37.5147C74.9561 27.334 74.9121 26.0596 74.7363 22.0605C74.5606 18.0762 73.916 15.3369 72.9932 12.9639C72.0703 10.4736 70.7959 8.37891 68.7012 6.29883C66.6211 4.21875 64.5264 2.92969 62.0654 1.97754C59.6777 1.05469 56.9531 0.410156 52.9688 0.234375C48.9551 0.0439453 47.6807 0 37.5 0Z" fill="white"/>
<path d="M37.5 18.2373C26.8652 18.2373 18.2373 26.8652 18.2373 37.5C18.2373 48.1348 26.8652 56.7627 37.5 56.7627C48.1348 56.7627 56.7627 48.1348 56.7627 37.5C56.7627 26.8652 48.1348 18.2373 37.5 18.2373ZM37.5 49.9951C30.6006 49.9951 25.0049 44.3994 25.0049 37.5C25.0049 30.6006 30.6006 25.0049 37.5 25.0049C44.3994 25.0049 49.9951 30.6006 49.9951 37.5C49.9951 44.3994 44.3994 49.9951 37.5 49.9951Z" fill="white"/>
<path d="M62.0215 17.4756C62.0215 19.9658 60 21.9727 57.5244 21.9727C55.0342 21.9727 53.0273 19.9512 53.0273 17.4756C53.0273 14.9854 55.0488 12.9785 57.5244 12.9785C60 12.9785 62.0215 15 62.0215 17.4756Z" fill="white"/>
</g>
<defs>
<clipPath id="clip0_104_175">
<rect width="75" height="75" fill="white"/>
</clipPath>
</defs>
</svg>
