<svg width="74" height="60" viewBox="0 0 74 60" fill="none" xmlns="http://www.w3.org/2000/svg">
<g clip-path="url(#clip0_199_45)">
<path d="M7 60C4.9375 60 3.17187 59.2656 1.70312 57.7969C0.234375 56.3281 -0.5 54.5625 -0.5 52.5V7.5C-0.5 5.4375 0.234375 3.67187 1.70312 2.20312C3.17187 0.734375 4.9375 0 7 0H67C69.0625 0 70.8281 0.734375 72.2969 2.20312C73.7656 3.67187 74.5 5.4375 74.5 7.5V52.5C74.5 54.5625 73.7656 56.3281 72.2969 57.7969C70.8281 59.2656 69.0625 60 67 60H7ZM37 33.75L7 15V52.5H67V15L37 33.75ZM37 26.25L67 7.5H7L37 26.25ZM7 15V7.5V52.5V15Z" fill="white"/>
</g>
<defs>
<clipPath id="clip0_199_45">
<rect width="74" height="60" fill="white"/>
</clipPath>
</defs>
</svg>
